<svg width="30" height="31" viewBox="0 0 30 31" fill="none" xmlns="http://www.w3.org/2000/svg">
<path d="M22.0312 10.5781L17.1094 15.5L22.0312 20.4688C22.6406 21.0312 22.6406 22.0156 22.0312 22.5781C21.4688 23.1875 20.4844 23.1875 19.9219 22.5781L15 17.6562L10.0312 22.5781C9.46875 23.1875 8.48438 23.1875 7.92188 22.5781C7.3125 22.0156 7.3125 21.0312 7.92188 20.4688L12.8438 15.5L7.92188 10.5781C7.3125 10.0156 7.3125 9.03125 7.92188 8.46875C8.48438 7.85938 9.46875 7.85938 10.0312 8.46875L15 13.3906L19.9219 8.46875C20.4844 7.85938 21.4688 7.85938 22.0312 8.46875C22.6406 9.03125 22.6406 10.0156 22.0312 10.5781Z" fill="#050505"/>
</svg>
