<svg width="21" height="20" viewBox="0 0 21 20" fill="none" xmlns="http://www.w3.org/2000/svg">
<path d="M2.5625 2.5H13.1875C13.7734 2.5 14.3594 2.89062 14.5938 3.4375C14.8281 4.02344 14.75 4.6875 14.3203 5.11719L10.375 9.53125V16.25C10.375 16.7578 10.1016 17.1875 9.67188 17.3828C9.24219 17.5781 8.73438 17.5391 8.34375 17.2656L5.84375 15.3906C5.53125 15.1562 5.375 14.8047 5.375 14.375V9.53125L1.39062 5.11719C0.960938 4.64844 0.882812 4.02344 1.11719 3.4375C1.35156 2.89062 1.9375 2.5 2.5625 2.5ZM14.75 15H19.75C20.4141 15 21 15.5859 21 16.25C21 16.9531 20.4141 17.5 19.75 17.5H14.75C14.0469 17.5 13.5 16.9531 13.5 16.25C13.5 15.5859 14.0469 15 14.75 15ZM13.5 10C13.5 9.33594 14.0469 8.75 14.75 8.75H19.75C20.4141 8.75 21 9.33594 21 10C21 10.7031 20.4141 11.25 19.75 11.25H14.75C14.0469 11.25 13.5 10.7031 13.5 10ZM17.25 2.5H19.75C20.4141 2.5 21 3.08594 21 3.75C21 4.45312 20.4141 5 19.75 5H17.25C16.5469 5 16 4.45312 16 3.75C16 3.08594 16.5469 2.5 17.25 2.5Z" fill="#4E5765"/>
</svg>
