<svg width="21" height="20" viewBox="0 0 21 20" fill="none" xmlns="http://www.w3.org/2000/svg">
<path d="M10.8125 2.125L19.3125 9.625C19.5312 9.8125 19.5312 10.125 19.375 10.3438C19.1875 10.5625 18.875 10.5625 18.6562 10.375L17.5 9.34375V15.5C17.5 16.9062 16.375 18 15 18H6C4.59375 18 3.5 16.9062 3.5 15.5V9.34375L2.3125 10.375C2.125 10.5625 1.78125 10.5625 1.625 10.3438C1.4375 10.125 1.4375 9.8125 1.65625 9.625L10.1562 2.125C10.3438 1.96875 10.625 1.96875 10.8125 2.125ZM4.5 15.5C4.5 16.3438 5.15625 17 6 17H8V12C8 11.4688 8.4375 11 9 11H12C12.5312 11 13 11.4688 13 12V17H15C15.8125 17 16.5 16.3438 16.5 15.5V8.46875L10.5 3.1875L4.5 8.46875V15.5ZM9 17H12V12H9V17Z" />
</svg>
