<svg width="21" height="20" viewBox="0 0 21 20"  xmlns="http://www.w3.org/2000/svg">
<path d="M3.75 3.5H5.25C5.65625 3.5 6 3.84375 6 4.25V5.75C6 6.1875 5.65625 6.5 5.25 6.5H3.75C3.3125 6.5 3 6.1875 3 5.75V4.25C3 3.84375 3.3125 3.5 3.75 3.5ZM8.5 4H17.5C18.0312 4 18.5 4.46875 18.5 5C18.5 5.5625 18.0312 6 17.5 6H8.5C7.9375 6 7.5 5.5625 7.5 5C7.5 4.46875 7.9375 4 8.5 4ZM8.5 9H17.5C18.0312 9 18.5 9.46875 18.5 10C18.5 10.5625 18.0312 11 17.5 11H8.5C7.9375 11 7.5 10.5625 7.5 10C7.5 9.46875 7.9375 9 8.5 9ZM8.5 14H17.5C18.0312 14 18.5 14.4688 18.5 15C18.5 15.5625 18.0312 16 17.5 16H8.5C7.9375 16 7.5 15.5625 7.5 15C7.5 14.4688 7.9375 14 8.5 14ZM3 9.25C3 8.84375 3.3125 8.5 3.75 8.5H5.25C5.65625 8.5 6 8.84375 6 9.25V10.75C6 11.1875 5.65625 11.5 5.25 11.5H3.75C3.3125 11.5 3 11.1875 3 10.75V9.25ZM3.75 13.5H5.25C5.65625 13.5 6 13.8438 6 14.25V15.75C6 16.1875 5.65625 16.5 5.25 16.5H3.75C3.3125 16.5 3 16.1875 3 15.75V14.25C3 13.8438 3.3125 13.5 3.75 13.5Z" />
</svg>
