<svg width="20" height="20" viewBox="0 0 20 20" fill="none" xmlns="http://www.w3.org/2000/svg">
<path d="M13 6C13 4.9375 12.4062 3.96875 11.5 3.40625C10.5625 2.875 9.40625 2.875 8.5 3.40625C7.5625 3.96875 7 4.9375 7 6C7 7.09375 7.5625 8.0625 8.5 8.625C9.40625 9.15625 10.5625 9.15625 11.5 8.625C12.4062 8.0625 13 7.09375 13 6ZM6 6C6 4.59375 6.75 3.28125 8 2.5625C9.21875 1.84375 10.75 1.84375 12 2.5625C13.2188 3.28125 14 4.59375 14 6C14 7.4375 13.2188 8.75 12 9.46875C10.75 10.1875 9.21875 10.1875 8 9.46875C6.75 8.75 6 7.4375 6 6ZM4 17H16C15.9375 14.5312 13.9062 12.5 11.4062 12.5H8.5625C6.0625 12.5 4.03125 14.5312 4 17ZM3 17.0938C3 14 5.46875 11.5 8.5625 11.5H11.4062C14.5 11.5 17 14 17 17.0938C17 17.5938 16.5625 18 16.0625 18H3.90625C3.40625 18 3 17.5938 3 17.0938Z"/>
</svg>
