<svg width="21" height="20" viewBox="0 0 21 20" fill="none" xmlns="http://www.w3.org/2000/svg">
<path d="M9.875 4.4375L9.75 4.65625L9.5 4.6875L8.15625 4.90625L9.125 5.84375L9.3125 6.03125L9.28125 6.3125L9.03125 7.65625L10.25 7L10.5 6.875L10.7188 7L11.9375 7.65625L11.7188 6.28125L11.6562 6.03125L11.8438 5.84375L12.8438 4.90625L11.4688 4.71875L11.2188 4.65625L11.0938 4.4375L10.5 3.1875L9.875 4.4375ZM9.71875 2.5C10.0312 1.84375 10.9375 1.875 11.25 2.5L11.875 3.75L13.25 3.9375C13.9375 4.0625 14.25 4.90625 13.75 5.40625H13.7188L12.7188 6.375L12.9688 7.75C13.0625 8.4375 12.3438 8.96875 11.7188 8.65625L10.5 8L9.25 8.65625V8.6875C8.625 9 7.90625 8.46875 8 7.78125V7.75L8.25 6.40625L7.25 5.40625C6.71875 4.90625 7.03125 4.0625 7.71875 3.9375L9.09375 3.75L9.71875 2.5ZM6.5 13.5V16.5C6.5 17.3438 5.8125 18 5 18H2C1.15625 18 0.5 17.3438 0.5 16.5V13.5C0.5 12.6875 1.15625 12 2 12H5C5.8125 12 6.5 12.6875 6.5 13.5ZM13.5 15.5V16.5C13.5 17.3438 12.8125 18 12 18H9C8.15625 18 7.5 17.3438 7.5 16.5V13.5V11.5C7.5 10.6875 8.15625 10 9 10H12C12.8125 10 13.5 10.6875 13.5 11.5V15.5ZM8.5 11.5V16.5C8.5 16.7812 8.71875 17 9 17H12C12.25 17 12.5 16.7812 12.5 16.5V11.5C12.5 11.25 12.25 11 12 11H9C8.71875 11 8.5 11.25 8.5 11.5ZM1.5 13.5V16.5C1.5 16.7812 1.71875 17 2 17H5C5.25 17 5.5 16.7812 5.5 16.5V13.5C5.5 13.25 5.25 13 5 13H2C1.71875 13 1.5 13.25 1.5 13.5ZM15.5 15.5V16.5C15.5 16.7812 15.7188 17 16 17H19C19.25 17 19.5 16.7812 19.5 16.5V15.5C19.5 15.25 19.25 15 19 15H16C15.7188 15 15.5 15.25 15.5 15.5ZM16 14H19C19.8125 14 20.5 14.6875 20.5 15.5V16.5C20.5 17.3438 19.8125 18 19 18H16C15.1562 18 14.5 17.3438 14.5 16.5V15.5C14.5 14.6875 15.1562 14 16 14Z" />
</svg>
